<?xml version="1.0" encoding="UTF-8"?>
<svg version="1.1" xmlns="http://www.w3.org/2000/svg" width="500" height="500">
<path d="M0 0 C165 0 330 0 500 0 C500 165 500 330 500 500 C335 500 170 500 0 500 C0 335 0 170 0 0 Z " fill="#ECECEC" transform="translate(0,0)"/>
<path d="M0 0 C11.88 0 23.76 0 36 0 C36 0.66 36 1.32 36 2 C35.030625 2.28875 34.06125 2.5775 33.0625 2.875 C29.89335797 3.64214682 29.89335797 3.64214682 29 6 C28.60252853 10.90717014 29.65528874 14.3678865 31.4909668 18.90063477 C31.75603531 19.56337906 32.02110382 20.22612335 32.29420471 20.90895081 C33.1695021 23.09048938 34.05927307 25.26580712 34.94921875 27.44140625 C35.56594111 28.97072879 36.18171431 30.5004344 36.79658508 32.03050232 C38.41809419 36.05857004 40.05178933 40.08158186 41.68829346 44.10357666 C43.33482589 48.1554887 44.97099983 52.21157463 46.60742188 56.26757812 C48.45600731 60.84940113 50.30529556 65.43090144 52.16447449 70.00843811 C55.5320136 78.30650682 58.8208802 86.62742981 62 95 C66.99749924 85.5510184 70.95052941 75.6922535 75 65.8125 C76.5075052 62.14256587 78.01686453 58.47339852 79.52734375 54.8046875 C79.90326157 53.89083786 80.27917938 52.97698822 80.66648865 52.03544617 C83.06001926 46.23209849 85.50858004 40.45554595 88.00390625 34.6953125 C88.61414381 33.27767892 89.22417606 31.85995694 89.83398438 30.44213867 C90.68604161 28.46147461 91.542213 26.48334116 92.41479492 24.5116272 C96.58732729 15.10044717 96.58732729 15.10044717 97 5 C94.69 4.01 92.38 3.02 90 2 C90 1.34 90 0.68 90 0 C100.89 0 111.78 0 123 0 C123 0.66 123 1.32 123 2 C120.11914062 2.5859375 120.11914062 2.5859375 117.23828125 3.171875 C112.12915013 5.06216435 109.40333657 8.42800552 107.140625 13.234375 C106.63466797 14.30107422 106.12871094 15.36777344 105.60742188 16.46679688 C105.07697266 17.63275391 104.54652344 18.79871094 104 20 C103.58778198 20.90455933 103.58778198 20.90455933 103.16723633 21.82739258 C100.99118204 26.61869906 98.86914773 31.43332651 96.75 36.25 C95.34034724 39.44350793 93.92834949 42.63597487 92.515625 45.828125 C92.15122314 46.65195679 91.78682129 47.47578857 91.41137695 48.32458496 C88.71459661 54.41188048 85.98249846 60.48260522 83.234375 66.546875 C82.64024811 67.85957367 82.64024811 67.85957367 82.03411865 69.1987915 C78.90787197 76.10512471 78.90787197 76.10512471 77.38317871 79.45031738 C71.89261215 91.49836112 66.82643056 103.67084092 62 116 C61.34 116 60.68 116 60 116 C59.54898926 114.97269775 59.09797852 113.94539551 58.63330078 112.88696289 C58.33033585 112.19687637 58.02737091 111.50678986 57.71522522 110.79579163 C57.02108173 109.21468644 56.32693911 107.63358087 55.63279724 106.05247498 C53.64836573 101.53237046 51.66391798 97.01227309 49.67944336 92.4921875 C42.74303959 76.69289733 42.74303959 76.69289733 39.55810547 69.43701172 C39.16403503 68.53927536 38.7699646 67.641539 38.36395264 66.71659851 C37.58001706 64.93052946 36.79620265 63.14440722 36.01251221 61.35823059 C34.10763414 57.01715144 32.20056954 52.67706092 30.28857422 48.33911133 C27.02398799 40.92758078 23.77803023 33.51158959 20.63671875 26.046875 C20.14034912 24.87962891 19.64397949 23.71238281 19.13256836 22.50976562 C18.24863427 20.42566039 17.37709343 18.33622697 16.52172852 16.24023438 C13.86506136 10.01288602 11.31758072 5.88794581 4.8828125 3.07421875 C4.30273438 2.94660156 3.72265625 2.81898438 3.125 2.6875 C2.09375 2.460625 1.0625 2.23375 0 2 C0 1.34 0 0.68 0 0 Z " fill="#5A5A5A" transform="translate(189,184)"/>
<path d="M0 0 C2.22508592 -0.00960642 4.44920623 -0.04064066 6.67407227 -0.07226562 C20.37922568 -0.17516245 33.25614797 1.91615204 46.26196289 6.36523438 C47.14029785 6.66308838 48.01863281 6.96094238 48.92358398 7.26782227 C62.06344183 11.90227601 73.92700963 18.55892987 84.82446289 27.24023438 C85.77063477 27.98402344 86.71680664 28.7278125 87.69165039 29.49414062 C114.41291046 50.89287328 132.72136217 83.41243909 136.59741211 117.57910156 C137.93995346 133.3142636 137.22245103 148.83184576 133.82446289 164.24023438 C133.4822168 165.89539063 133.4822168 165.89539063 133.13305664 167.58398438 C127.96896546 190.48304013 114.71551974 210.40294997 98.82446289 227.24023438 C98.1399707 227.98917969 97.45547852 228.738125 96.75024414 229.50976562 C83.91835257 243.05322235 67.0354767 252.48473242 49.82446289 259.24023438 C48.72489258 259.73652344 47.62532227 260.2328125 46.49243164 260.74414062 C42.54985935 262.35223987 38.71293516 263.41604349 34.57446289 264.36523438 C33.88739258 264.53410156 33.20032227 264.70296875 32.49243164 264.87695312 C-0.43053816 272.5771689 -37.48773664 266.52685641 -66.17944336 248.82226562 C-96.86613965 229.18707184 -119.41503073 200.11949294 -128.11694336 164.37304688 C-135.42032032 129.30272467 -130.30415662 92.79384966 -111.17553711 62.24023438 C-102.17426225 48.89537641 -92.01810857 37.01893521 -79.17553711 27.24023438 C-78.39694336 26.64597656 -77.61834961 26.05171875 -76.81616211 25.43945312 C-53.85286603 8.67932931 -28.41508374 0.0738134 0 0 Z M-96.43579102 46.30224609 C-121.36456009 74.07162147 -130.25614275 108.81086365 -128.45043945 145.41894531 C-126.05439346 178.72526139 -109.11932183 210.55795738 -84.47143555 232.77636719 C-64.49479928 249.9692803 -41.86075202 259.23323617 -16.17553711 264.24023438 C-15.37470703 264.4183667 -14.57387695 264.59649902 -13.7487793 264.7800293 C9.44209855 268.92754398 34.55679253 263.69922658 55.82446289 254.24023438 C56.48494629 253.94777832 57.14542969 253.65532227 57.82592773 253.35400391 C89.46466655 239.05943858 114.11550245 212.65958004 126.39868164 180.18554688 C126.87739381 178.87169525 127.35287269 177.55665912 127.82446289 176.24023438 C128.42194336 174.59667969 128.42194336 174.59667969 129.03149414 172.91992188 C136.37563776 150.9700095 136.82805237 127.73235698 131.82446289 105.24023438 C131.67992676 104.58474609 131.53539062 103.92925781 131.38647461 103.25390625 C126.4497614 81.58266465 116.4857861 62.86763541 101.82446289 46.24023438 C101.25469727 45.53898437 100.68493164 44.83773437 100.09790039 44.11523438 C95.33119338 38.33193108 89.75045922 33.79636438 83.82446289 29.24023438 C83.31028809 28.83514648 82.79611328 28.43005859 82.26635742 28.01269531 C66.59474893 15.73460204 49.07962179 8.84847194 29.82446289 4.24023438 C29.05803467 4.04445801 28.29160645 3.84868164 27.50195312 3.64697266 C20.03143409 1.91135871 12.6515475 1.94437394 5.01196289 1.99023438 C3.73514648 1.9825 2.45833008 1.97476563 1.14282227 1.96679688 C-37.05290458 2.04454899 -70.67970584 18.61291204 -96.43579102 46.30224609 Z " fill="#636363" transform="translate(247.175537109375,116.759765625)"/>
<path d="M0 0 C0 0.66 0 1.32 0 2 C-1.12921875 2.14695312 -1.12921875 2.14695312 -2.28125 2.296875 C-37.88212687 7.30864893 -69.05560216 23.79789876 -91.38378906 52.36279297 C-113.42448976 81.8002835 -121.23457542 117.61075305 -116.31640625 153.828125 C-115.70610023 157.59248955 -114.93574025 161.30159804 -114 165 C-114.66 165 -115.32 165 -116 165 C-116.495 165.99 -116.495 165.99 -117 167 C-117.48557871 164.7095344 -117.96349409 162.41786582 -118.4375 160.125 C-118.70433594 158.84882813 -118.97117187 157.57265625 -119.24609375 156.2578125 C-125.49305558 123.23202554 -118.46652412 86.89503013 -99.61474609 58.94628906 C-90.78386915 46.43077466 -81.23460216 35.31577564 -69 26 C-68.22140625 25.40574219 -67.4428125 24.81148437 -66.640625 24.19921875 C-51.7297191 13.31625891 -19.31135275 -6.95208699 0 0 Z " fill="#636363" transform="translate(237,118)"/>
<path d="M0 0 C0.99 0.33 1.98 0.66 3 1 C2.67515625 2.3921875 2.67515625 2.3921875 2.34375 3.8125 C-1.94045263 24.22471809 -2.12061387 47.76138328 3 68 C2.34 68 1.68 68 1 68 C0.505 68.99 0.505 68.99 0 70 C-0.48557871 67.7095344 -0.96349409 65.41786582 -1.4375 63.125 C-1.70433594 61.84882813 -1.97117187 60.57265625 -2.24609375 59.2578125 C-3.78196411 51.13813308 -4.19520323 42.99938712 -4.1875 34.75 C-4.18669434 33.83758545 -4.18588867 32.9251709 -4.18505859 31.98510742 C-4.11775692 24.49812639 -3.39946168 17.36608545 -2 10 C-1.80921875 8.98550781 -1.6184375 7.97101563 -1.421875 6.92578125 C-0.97002236 4.61165025 -0.49909238 2.30432015 0 0 Z " fill="#707070" transform="translate(120,215)"/>
<path d="M0 0 C0.66 0.33 1.32 0.66 2 1 C2 1.66 2 2.32 2 3 C-13.74487472 7.40774487 -13.74487472 7.40774487 -21 8 C-21.33 7.01 -21.66 6.02 -22 5 C-21.16021606 4.82609741 -21.16021606 4.82609741 -20.3034668 4.64868164 C-17.76442215 4.12180947 -15.22595912 3.59218569 -12.6875 3.0625 C-11.80642578 2.88009766 -10.92535156 2.69769531 -10.01757812 2.50976562 C-9.17001953 2.33251953 -8.32246094 2.15527344 -7.44921875 1.97265625 C-6.27879028 1.72914429 -6.27879028 1.72914429 -5.0847168 1.48071289 C-2.8247029 0.99433396 -2.8247029 0.99433396 0 0 Z " fill="#6B6B6B" transform="translate(290,375)"/>
<path d="M0 0 C0.50944993 2.81107194 1.0077016 5.62341589 1.5 8.4375 C1.64308594 9.22060547 1.78617187 10.00371094 1.93359375 10.81054688 C2.87971603 16.28454005 3.13345719 21.44484438 3 27 C2.34 27 1.68 27 1 27 C-0.32 18.42 -1.64 9.84 -3 1 C-1 0 -1 0 0 0 Z " fill="#6A6A6A" transform="translate(381,219)"/>
<path d="M0 0 C0.66 0 1.32 0 2 0 C2.02727345 2.66673742 2.04696948 5.33318869 2.0625 8 C2.07087891 8.74378906 2.07925781 9.48757812 2.08789062 10.25390625 C2.10966272 15.26148844 1.71541549 20.04279032 1 25 C0.34 25 -0.32 25 -1 25 C-0.67 16.75 -0.34 8.5 0 0 Z " fill="#5A5A5A" transform="translate(382,246)"/>
<path d="M0 0 C0 0.66 0 1.32 0 2 C-13.6332574 4.11161731 -13.6332574 4.11161731 -20 5 C-20.33 4.01 -20.66 3.02 -21 2 C-18.25162151 1.46892686 -15.50187625 0.94984119 -12.75 0.4375 C-11.97269531 0.28603516 -11.19539062 0.13457031 -10.39453125 -0.02148438 C-9.64042969 -0.16005859 -8.88632813 -0.29863281 -8.109375 -0.44140625 C-7.07248535 -0.63778687 -7.07248535 -0.63778687 -6.01464844 -0.83813477 C-3.78712058 -1.01710362 -2.12493038 -0.65206197 0 0 Z " fill="#6A6A6A" transform="translate(237,118)"/>
<path d="M0 0 C-0.33 0.99 -0.66 1.98 -1 3 C-3.64 3.33 -6.28 3.66 -9 4 C-9.33 3.01 -9.66 2.02 -10 1 C-6.59437148 0.22157062 -3.49234244 -0.09978121 0 0 Z " fill="#727272" transform="translate(278,379)"/>
<path d="M0 0 C0 3 0 3 -1.53125 4.82421875 C-2.1809375 5.43910156 -2.830625 6.05398438 -3.5 6.6875 C-4.1496875 7.31011719 -4.799375 7.93273437 -5.46875 8.57421875 C-5.9740625 9.04472656 -6.479375 9.51523437 -7 10 C-7.66 9.67 -8.32 9.34 -9 9 C-6.31941902 5.42589203 -3.57410797 2.68058098 0 0 Z " fill="#565656" transform="translate(348,339)"/>
<path d="M0 0 C3.77545388 1.09068668 6.47043472 1.9083091 9 5 C8.01 5.495 8.01 5.495 7 6 C4.5249829 4.88568235 2.32116581 3.41849022 0 2 C0 1.34 0 0.68 0 0 Z " fill="#606060" transform="translate(310,131)"/>
<path d="M0 0 C-0.33 0.66 -0.66 1.32 -1 2 C-3.3140622 2.73075648 -5.64828869 3.40138258 -8 4 C-8.66 3.34 -9.32 2.68 -10 2 C-8.71211992 1.46987262 -7.41953322 0.9511671 -6.125 0.4375 C-5.40570313 0.14746094 -4.68640625 -0.14257812 -3.9453125 -0.44140625 C-2 -1 -2 -1 0 0 Z " fill="#6B6B6B" transform="translate(206,125)"/>
<path d="M0 0 C0.99 0.33 1.98 0.66 3 1 C2.67 3.31 2.34 5.62 2 8 C1.01 8 0.02 8 -1 8 C-0.67 5.36 -0.34 2.72 0 0 Z " fill="#787878" transform="translate(120,215)"/>
<path d="M0 0 C0 0.66 0 1.32 0 2 C-2.31 2.33 -4.62 2.66 -7 3 C-7.33 2.01 -7.66 1.02 -8 0 C-4.94736336 -0.98120464 -3.05263664 -0.98120464 0 0 Z " fill="#777777" transform="translate(224,120)"/>
<path d="M0 0 C2.97 0.495 2.97 0.495 6 1 C6 1.99 6 2.98 6 4 C3.69 3.67 1.38 3.34 -1 3 C-0.67 2.01 -0.34 1.02 0 0 Z " fill="#737373" transform="translate(219,378)"/>
<path d="M0 0 C1 3 1 3 -0.3125 5.6875 C-0.869375 6.450625 -1.42625 7.21375 -2 8 C-2.66 8 -3.32 8 -4 8 C-2.25 2.25 -2.25 2.25 0 0 Z " fill="#5D5D5D" transform="translate(371,304)"/>
<path d="M0 0 C0 0.66 0 1.32 0 2 C-4.625 4.125 -4.625 4.125 -8 3 C-3.375 0 -3.375 0 0 0 Z " fill="#5C5C5C" transform="translate(299,373)"/>
<path d="M0 0 C0.66 0.33 1.32 0.66 2 1 C2 1.66 2 2.32 2 3 C0.02 3.66 -1.96 4.32 -4 5 C-4.33 4.01 -4.66 3.02 -5 2 C-2.625 0.9375 -2.625 0.9375 0 0 Z " fill="#6A6A6A" transform="translate(303,370)"/>
</svg>
